<svg height="30px" viewBox="0 0 9661 8151" width="30px" xmlns="http://www.w3.org/2000/svg">
   <path fill="#817b7b"
      d="M6400 4227l-3139 0 0 56c0,150 -62,287 -160,386l-1 1c-99,99 -236,160 -386,160l-355 0c-150,0 -287,-62 -386,-160l-1 -1c-99,-99 -160,-236 -160,-386l0 -56 -906 0 0 3321c0,83 34,158 89,213 55,55 130,89 213,89l7246 0c83,0 158,-34 213,-89 55,-55 89,-130 89,-213l0 -3321 -906 0 0 56c0,150 -62,287 -160,386l-1 1c-99,99 -236,160 -386,160l-355 0c-150,0 -287,-62 -386,-160l-1 -1c-99,-99 -160,-236 -160,-386l0 -56zm-3834 -2717l0 -891c0,-170 70,-325 181,-437 112,-112 266,-181 437,-181l3293 0c170,0 325,70 437,181l0 1c112,112 181,266 181,436l0 891 2415 0 151 0 0 151 0 1688c0,241 -99,461 -258,620 -96,96 -214,170 -346,214l0 3365c0,166 -68,317 -177,426 -109,109 -260,177 -426,177l-7246 0c-166,0 -317,-68 -426,-177 -109,-109 -177,-260 -177,-426l0 -3365c-132,-44 -250,-118 -346,-214 -159,-159 -258,-379 -258,-620l0 -1688 0 -151 151 0 2415 0zm4226 0l0 -891c0,-87 -36,-166 -93,-223l0 0c-57,-57 -136,-93 -223,-93l-3293 0c-87,0 -166,36 -223,93 -57,57 -93,136 -93,223l0 891 3924 0zm1056 2415l934 0 7 0c155,-2 296,-67 399,-169 104,-104 169,-249 169,-407l0 -1537 -9057 0 0 1537c0,158 65,302 169,407 103,103 244,167 399,169l7 0 934 0 0 -302 0 -151 151 0 1147 0 151 0 0 151 0 302 3139 0 0 -302 0 -151 151 0 1147 0 151 0 0 151 0 302zm-302 -151l-845 0 0 510c0,67 27,129 71,173l1 1c44,44 106,71 173,71l355 0c67,0 129,-27 173,-71l1 -1c44,-44 71,-106 71,-173l0 -510zm-4588 0l-845 0 0 510c0,67 27,129 71,173l1 1c44,44 106,71 173,71l355 0c67,0 129,-27 173,-71l1 -1c44,-44 71,-106 71,-173l0 -510z" />
</svg>