<svg xmlns="http://www.w3.org/2000/svg" xmlns:xlink="http://www.w3.org/1999/xlink" width="149" height="120" viewBox="0 0 149 120">
    <defs>
        <path id="prefix__a" d="M0.063 0.115L90.821 0.115 90.821 89.939 0.063 89.939z"/>
        <path id="prefix__c" d="M0 0.067L65.886 0.067 65.886 66 0 66z"/>
    </defs>
    <g fill="none" fill-rule="evenodd">
        <path fill="#FFF" d="M104.05 29C95.31 28.962 88.095 35.807 88 44.227c-.125 11.152 11.504 19.508 23.782 14.068 2.488-1.102 4.551-2.973 5.868-5.296C124.376 41.135 115.674 29.05 104.05 29"/>
        <g transform="translate(58)">
            <mask id="prefix__b" fill="#fff">
                <use xlink:href="#prefix__a"/>
            </mask>
            <path fill="#FFF" d="M45.368 71.522c-14.853-.028-26.711-11.89-26.664-26.67.047-14.497 12.135-26.299 26.834-26.197 14.8.101 26.754 12.04 26.623 26.588-.132 14.591-12.076 26.307-26.793 26.28m37.843-34.25c-1.666-.384-1.56-1.577-2.617-4.704-.616-1.818-1.44-3.561-2.398-5.229-.862-1.5-1.067-2.187-.4-3.246 1.37-2.175 2.653-4.402 4.025-6.699-2.681-2.637-5.291-5.24-7.965-7.776-.233-.22-.975-.166-1.328.03-2.1 1.163-4.13 2.447-6.242 3.588-.438.237-1.183.209-1.672.017-3.299-1.292-6.554-2.694-9.854-3.982-.735-.287-1.179-.563-1.373-1.391-.605-2.58-1.325-5.134-2.015-7.76-3.773 0-7.432-.03-11.09.044-.363.008-.917.58-1.037.99-.642 2.193-1.214 4.408-1.725 6.636-.195.851-.636 1.193-1.442 1.5-3.223 1.224-6.428 2.506-9.577 3.903-.866.384-1.437.407-2.225-.079-2.204-1.36-4.46-2.633-6.624-3.899l-8.45 8.425c1.272 2.128 2.596 4.392 3.977 6.623.416.673.444 1.186.102 1.951-1.431 3.21-2.711 6.486-4.123 9.705-.222.507-.773 1.07-1.287 1.22-2.572.753-5.184 1.376-7.808 2.052v11.795c2.58.655 5.085 1.331 7.611 1.908.913.208 1.285.664 1.612 1.52 1.205 3.149 2.47 6.282 3.888 9.341.427.922.418 1.509-.09 2.32-1.366 2.174-2.652 4.398-4.008 6.667 2.685 2.654 5.288 5.262 7.956 7.805.23.22.973.16 1.327-.035 2.059-1.138 4.092-2.325 6.09-3.565.714-.443 1.232-.341 1.972-.02 3.208 1.387 6.45 2.695 9.71 3.96.735.285 1.173.574 1.366 1.4.604 2.58 1.323 5.133 1.986 7.651h11.934c.673-2.588 1.36-5.068 1.946-7.57.2-.857.652-1.19 1.448-1.494 3.22-1.23 6.427-2.507 9.575-3.908.872-.389 1.445-.392 2.224.086 2.206 1.354 4.461 2.633 6.626 3.898l8.454-8.411c-1.31-2.187-2.718-4.46-4.023-6.789-.244-.437-.26-1.172-.07-1.648 1.318-3.31 2.69-6.598 4.122-9.86.222-.507.777-1.068 1.293-1.219 2.573-.751 5.185-1.374 7.81-2.048v-11.8c-2.58-.652-5.085-1.322-7.61-1.903" mask="url(#prefix__b)"/>
        </g>
        <g transform="translate(0 54)">
            <mask id="prefix__d" fill="#fff">
                <use xlink:href="#prefix__c"/>
            </mask>
            <path fill="#FFF" d="M44.856 40.742c-1.15 2.095-2.95 3.78-5.123 4.774-10.72 4.904-20.873-2.627-20.764-12.68.082-7.59 6.381-13.76 14.012-13.726 10.15.047 17.746 10.939 11.875 21.632m15.506-13.4c-1.21-.28-1.132-1.157-1.9-3.452-.447-1.335-1.045-2.615-1.74-3.838-.627-1.101-.776-1.606-.29-2.384.993-1.596 1.925-3.23 2.92-4.917-1.946-1.935-3.84-3.845-5.782-5.707-.169-.162-.707-.122-.963.021-1.525.855-3 1.797-4.532 2.635-.318.173-.859.152-1.214.012-2.395-.95-4.758-1.978-7.154-2.923-.533-.211-.856-.414-.997-1.021C38.271 3.874 37.75 2 37.248.07c-2.74 0-5.396-.021-8.05.033-.264.006-.667.426-.754.726-.466 1.61-.881 3.237-1.252 4.872-.141.625-.462.875-1.047 1.1-2.34.9-4.666 1.84-6.952 2.865-.63.283-1.044.3-1.616-.057-1.599-.998-3.237-1.933-4.808-2.862l-6.134 6.184c.923 1.561 1.885 3.224 2.886 4.86.303.496.323.872.075 1.433-1.04 2.357-1.968 4.761-2.993 7.124-.162.372-.561.786-.934.896-1.868.552-3.763 1.01-5.669 1.505v8.66c1.873.48 3.691.975 5.525 1.4.663.152.933.487 1.17 1.115.875 2.311 1.793 4.61 2.823 6.856.31.677.304 1.108-.065 1.702-.992 1.597-1.926 3.23-2.91 4.895 1.949 1.948 3.84 3.862 5.776 5.729.167.161.706.118.964-.026 1.494-.836 2.97-1.706 4.42-2.617.519-.325.894-.25 1.433-.015 2.327 1.019 4.682 1.979 7.047 2.906.535.21.852.423.992 1.029.44 1.893.96 3.768 1.442 5.616h8.664c.488-1.9.987-3.72 1.413-5.556.145-.63.473-.874 1.05-1.097 2.339-.904 4.667-1.84 6.951-2.869.633-.285 1.049-.288 1.615.063 1.602.995 3.239 1.933 4.81 2.862l6.138-6.175c-.951-1.604-1.973-3.273-2.921-4.982-.177-.32-.189-.86-.051-1.21.957-2.429 1.953-4.844 2.992-7.238.162-.372.564-.784.939-.894 1.868-.551 3.764-1.008 5.67-1.504v-8.662c-1.873-.478-3.692-.97-5.525-1.396" mask="url(#prefix__d)"/>
        </g>
    </g>
</svg>
