<svg xmlns="http://www.w3.org/2000/svg" xmlns:xlink="http://www.w3.org/1999/xlink" width="161" height="110" viewBox="0 0 161 110">
    <defs>
        <path id="prefix__a" d="M0 0.504L59.399 0.504 59.399 83.479 0 83.479z"/>
        <path id="prefix__c" d="M0.24 0.126L19.197 0.126 19.197 19.102 0.24 19.102z"/>
    </defs>
    <g fill="none" fill-rule="evenodd">
        <path fill="#FFF" d="M75.253 53.68h-.003l-3.692.008c-.68.001-1.23.591-1.228 1.319 0 .725.552 1.313 1.23 1.313h.003l3.692-.008c.68-.001 1.23-.591 1.229-1.319-.002-.725-.552-1.313-1.231-1.313M66.447 53.68h-.002l-2.784.005c-.688.002-1.245.592-1.243 1.32 0 .726.558 1.315 1.245 1.315h.002l2.784-.005c.688-.002 1.245-.592 1.243-1.32 0-.726-.558-1.315-1.245-1.315M84.923 53.68h-.002l-3.692.007c-.68.002-1.23.592-1.229 1.32.001.725.552 1.313 1.23 1.313h.003l3.692-.007c.68-.002 1.23-.592 1.229-1.32-.001-.725-.552-1.313-1.23-1.313M149.978 53.68h-.002l-3.692.007c-.68.002-1.23.592-1.23 1.32.002.725.553 1.313 1.232 1.313h.002l3.692-.007c.68-.002 1.23-.592 1.229-1.32-.001-.725-.552-1.313-1.231-1.313M113.055 53.68h-.002l-3.692.007c-.68.002-1.23.592-1.23 1.32.002.725.553 1.313 1.232 1.313h.001l3.693-.007c.68-.002 1.23-.592 1.229-1.32-.002-.725-.552-1.313-1.231-1.313M141.187 53.68h-.003l-3.692.008c-.68.001-1.23.591-1.228 1.319.001.725.552 1.313 1.23 1.313h.003l3.692-.008c.68-.001 1.23-.591 1.229-1.319-.002-.725-.552-1.313-1.231-1.313M131.516 53.68h-.001l-3.693.007c-.68.002-1.23.592-1.229 1.32.002.725.552 1.313 1.231 1.313h.002l3.692-.007c.68-.002 1.23-.592 1.23-1.32-.002-.725-.553-1.313-1.232-1.313M121.846 53.68h-.002l-3.692.007c-.68.002-1.23.592-1.229 1.32.001.725.552 1.313 1.23 1.313h.003l3.692-.007c.68-.002 1.23-.592 1.229-1.32-.001-.725-.552-1.313-1.23-1.313"/>
        <g transform="translate(0 23.76)">
            <mask id="prefix__b" fill="#fff">
                <use xlink:href="#prefix__a"/>
            </mask>
            <path fill="#FFF" d="M41.39 15.075v1.223c0 20.373.004 40.745-.017 61.118 0 .896-.104 1.838-.393 2.678-.798 2.323-2.835 3.547-5.324 3.348-2.223-.178-4.087-1.868-4.526-4.158-.118-.614-.142-1.254-.142-1.882-.009-9.607-.006-19.215-.006-28.823v-1.296h-2.578v1.26c0 9.748.004 19.496-.003 29.244-.003 2.644-1.403 4.784-3.51 5.428-3.297 1.008-6.354-.957-6.824-4.4-.066-.485-.068-.978-.068-1.469-.004-20.337-.003-40.674-.003-61.012V15.08l-.162-.045c-.108.264-.23.523-.32.793-2.494 7.508-4.961 15.025-7.488 22.521-1.195 3.546-5.168 4.76-8.067 2.54C.121 39.483-.469 37.21.381 34.635c2.262-6.852 4.539-13.698 6.81-20.546C8.26 10.865 9.32 7.637 10.4 4.416 11.299 1.732 12.97.514 15.803.51 25.89.5 33.465.5 43.553.51c2.89.002 4.536 1.207 5.455 3.971 3.334 10.038 6.616 20.093 10.01 30.11 1.52 4.487-1.788 7.493-4.863 7.394-2.132-.067-3.647-1.132-4.524-3.03-.525-1.14-.87-2.364-1.267-3.56-2.139-6.444-4.268-12.893-6.404-19.338-.115-.345-.262-.679-.395-1.019l-.176.036" mask="url(#prefix__b)"/>
        </g>
        <path fill="#FFF" d="M29.427 1.76c5.102-.012 9.235 4.101 9.254 9.21.018 5.082-4.132 9.262-9.206 9.27-5.087.008-9.238-4.129-9.255-9.223-.017-5.099 4.107-9.245 9.207-9.257M58.898 110c-.607 0-1.196-.318-1.52-.887-.484-.846-.196-1.928.643-2.416L146.826 55 58.021 3.303c-.84-.488-1.127-1.57-.643-2.417C57.86.04 58.933-.252 59.77.237l91.44 53.23c.542.315.877.9.877 1.533 0 .632-.335 1.217-.878 1.532l-91.439 53.23c-.276.161-.577.238-.873.238"/>
        <g transform="translate(140.66 44.88)">
            <mask id="prefix__d" fill="#fff">
                <use xlink:href="#prefix__c"/>
            </mask>
            <path fill="#FFF" d="M19.197 9.614c0 5.24-4.244 9.488-9.478 9.488-5.235 0-9.48-4.248-9.48-9.488C.24 4.374 4.485.126 9.72.126c5.234 0 9.478 4.247 9.478 9.488" mask="url(#prefix__d)"/>
        </g>
        <path fill="#FFF" d="M101.28 57.777c0-2.684-1.462-4.3-3.698-4.3-1.462 0-2.814.953-3.476 2.309-.166.289-.276.664-.276 1.126.055 3.086 1.407 5.366 3.946 5.366 2.097 0 3.504-1.818 3.504-4.5zm.69-10.82c-.496-.029-1.131 0-1.82.116-3.81.663-5.824 3.578-6.237 6.664h.082c.856-1.182 2.346-2.163 4.332-2.163 3.174 0 5.41 2.394 5.41 6.059 0 3.434-2.236 6.607-5.961 6.607-3.836 0-6.347-3.116-6.347-7.993 0-3.692 1.269-6.606 3.035-8.453 1.49-1.53 3.477-2.481 5.74-2.77.718-.115 1.325-.144 1.766-.144v2.077z"/>
        <path fill="#FFF" d="M97.143 53.802c-1.352 0-2.646.816-3.298 2.08-.169.281-.25.598-.25.959.045 2.372 1.052 4.913 3.746 4.913 1.97 0 3.293-1.637 3.293-4.074 0-2.392-1.338-3.878-3.491-3.878zm.198 8.535c-2.61 0-4.27-2.104-4.334-5.49 0-.474.11-.891.324-1.247.741-1.44 2.242-2.381 3.812-2.381 2.478 0 4.08 1.751 4.08 4.461 0 2.786-1.56 4.657-3.882 4.657zm4-16.87c-.484.013-.976.058-1.47.133-2.27.273-4.242 1.175-5.714 2.606-1.946 1.928-3.02 4.766-3.02 7.99 0 4.533 2.436 7.461 6.204 7.461 3.771 0 5.807-3.151 5.807-6.117 0-3.34-2.107-5.585-5.243-5.585-1.707 0-3.238.723-4.2 1.983l-.087.116h-.57l.046-.332c.395-2.78 2.342-6.004 6.628-6.71.552-.089 1.114-.125 1.618-.127v-1.418zm-4 18.773c-4.126 0-6.792-3.157-6.792-8.043 0-3.38 1.134-6.366 3.194-8.405 1.567-1.524 3.658-2.481 6.048-2.77.614-.094 1.237-.142 1.843-.142h.295v2.614l-.311-.017c-.534-.029-1.175.01-1.801.11-3.06.504-5.234 2.465-5.963 5.318 1.057-.983 2.489-1.533 4.051-1.533 3.488 0 5.831 2.479 5.831 6.168 0 3.248-2.241 6.7-6.395 6.7zM109.89 44.88c-.674 2.423-1.934 5.511-2.755 6.838l-1.64.202c.644-1.702 1.407-4.703 1.729-6.78l2.666-.26z"/>
        <path fill="#FFF" d="M107.074 44.898c-.317 1.964-.957 4.563-1.542 6.287l1.002-.126c.777-1.344 1.877-4.115 2.528-6.359l-1.988.198zm-2.459 7.022l.176-.476c.638-1.718 1.391-4.74 1.716-6.875l.036-.236L109.89 44l-.117.431c-.66 2.424-1.939 5.663-2.792 7.074l-.076.127-2.29.288z"/>
    </g>
</svg>
