<svg xmlns="http://www.w3.org/2000/svg" xmlns:xlink="http://www.w3.org/1999/xlink" width="131" height="107" viewBox="0 0 131 107">
    <defs>
        <path id="prefix__a" d="M0 0.04L130.723 0.04 130.723 66.861 0 66.861z"/>
    </defs>
    <g fill="none" fill-rule="evenodd">
        <path fill="#FFF" d="M75.822 61.368l-4.321-9.612L60.773 85.02 47.21 41l-6.58 19.28H18c6.616 6.735 13.222 13.48 19.89 20.162C46.786 89.356 65.034 107 65.034 107S83.28 89.356 92.177 80.442C98.486 74.119 104.74 67.741 111 61.368H75.822z"/>
        <mask id="prefix__b" fill="#fff">
            <use xlink:href="#prefix__a"/>
        </mask>
        <path fill="#FFF" d="M9.357 51.375c1.078 1.083 2.152 2.17 3.229 3.255h24.31l10.772-31.378 13.52 43.61 9.854-30.37 8.695 19.227h37.321c1.436-1.45 2.87-2.899 4.308-4.344 4.98-5 8.204-10.885 9.096-17.92 1.095-8.629-1.267-16.292-6.856-22.92C117.926 3.8 110.603.198 101.83.049c-7.187-.122-12.958 1.033-21.037 5.653-8.665 4.956-13.367 11.393-15.431 14.858-2.064-3.465-6.768-9.902-15.431-14.858C41.85 1.082 36.08-.073 28.894.05 20.12.199 12.797 3.801 7.118 10.535 1.528 17.163-.833 24.826.261 33.455c.892 7.035 4.117 12.92 9.096 17.92" mask="url(#prefix__b)"/>
    </g>
</svg>
