<svg xmlns="http://www.w3.org/2000/svg" xmlns:xlink="http://www.w3.org/1999/xlink" width="90" height="121" viewBox="0 0 90 121">
    <defs>
        <path id="prefix__a" d="M0 0.074L89.765 0.074 89.765 109 0 109z"/>
    </defs>
    <g fill="none" fill-rule="evenodd">
        <g transform="translate(0 12)">
            <mask id="prefix__b" fill="#fff">
                <use xlink:href="#prefix__a"/>
            </mask>
            <path fill="#FFF" d="M69.572 91.594c0 5.534-10.78 11.7-26.25 11.7-15.469 0-26.25-6.166-26.25-11.7 0-4.274 6.438-8.924 16.497-10.819.14 4.43.3 7.825.47 8.87.475 2.895 3.023 4.786 5.885 4.521 2.806-.259 4.933-2.676 4.887-5.58-.005-.337.244-3.915.587-8.65 14.348.523 24.174 6.376 24.174 11.658M89.556 3.23c-.842-2.66-3.24-3.718-6.15-2.692-9.522 3.36-19.041 6.732-28.568 10.082-.508.179-1.073.276-1.613.278-5.54.02-11.078.02-16.617 0-.54-.001-1.106-.092-1.615-.27-5.733-2.009-11.456-4.05-17.187-6.068C13.723 3.122 9.647 1.659 5.536.299 3.725-.301 2.099.329.983 1.84-.138 3.36-.391 5.048.7 6.605c.594.848 1.567 1.565 2.526 2.011 9.597 4.457 19.223 8.85 28.853 13.24.609.277.842.582.84 1.274-.03 8.34-.068 16.681.01 25.02.015 1.569.195 15.5.477 26.86-12.956 2.221-22.104 8.714-22.104 16.584 0 9.76 14.065 17.406 32.02 17.406 17.954 0 32.019-7.645 32.019-17.406 0-9.303-12.782-16.68-29.528-17.35.7-9.498 1.509-20.206 1.509-20.206s.121-.865.66-1.102c2.977-1.308 9.323-4.12 9.607-4.207-.096.408-.161.702-.236.994-1.149 4.539-2.303 9.077-3.447 13.618-.421 1.669-.293 3.287.736 4.712 1.336 1.851 3.211 2.651 5.47 2.23 2.34-.436 3.793-1.93 4.37-4.198 2.16-8.49 4.323-16.98 6.434-25.483 1.062-4.283-2.32-7.675-6.684-6.763-2.402.502-4.795 1.045-7.323 1.598 0-4.345-.013-8.543.03-12.74.003-.261.402-.624.7-.762 7.351-3.392 14.713-6.758 22.073-10.132 2.511-1.15 5.04-2.266 7.52-3.48 2.094-1.022 2.968-3.058 2.323-5.093" mask="url(#prefix__b)"/>
        </g>
        <path fill="#FFF" d="M44.442 19c5.26.045 9.543-4.197 9.558-9.466C54.014 4.25 49.79.005 44.514 0 39.23-.004 34.998 4.226 35 9.507c.002 5.24 4.188 9.448 9.442 9.493"/>
    </g>
</svg>
