<svg xmlns="http://www.w3.org/2000/svg" xmlns:xlink="http://www.w3.org/1999/xlink" width="230" height="73" viewBox="0 0 230 73">
    <defs>
        <path id="prefix__a" d="M0.016 0.025L17.772 0.025 17.772 18.765 0.016 18.765z"/>
        <path id="prefix__c" d="M0.23 0.252L17.986 0.252 17.986 18.387 0.23 18.387z"/>
    </defs>
    <g fill="none" fill-rule="evenodd">
        <path fill="#3078BA" d="M187.266 30c-1.127 0-2.207-.157-3.237-.47-1.03-.314-1.837-.708-2.418-1.183l.846-1.425c.581.441 1.312.802 2.193 1.081.88.28 1.797.42 2.748.42 1.269 0 2.206-.19 2.814-.572.608-.382.912-.92.912-1.615 0-.492-.167-.878-.502-1.158-.335-.28-.758-.491-1.269-.635-.51-.145-1.189-.284-2.034-.42-1.127-.204-2.035-.411-2.722-.623-.687-.212-1.273-.573-1.757-1.081-.484-.509-.727-1.213-.727-2.111 0-1.12.485-2.035 1.454-2.747.969-.713 2.316-1.069 4.043-1.069.898 0 1.796.115 2.695.344.898.229 1.638.53 2.22.903l-.82 1.45c-1.145-.764-2.51-1.145-4.095-1.145-1.198 0-2.101.203-2.71.61-.607.407-.91.941-.91 1.603 0 .508.171.915.515 1.22.343.306.77.53 1.281.675.511.144 1.216.292 2.114.445 1.11.203 2 .407 2.669.61.67.204 1.242.551 1.718 1.043.475.492.713 1.17.713 2.035 0 1.17-.506 2.098-1.52 2.785-1.013.687-2.417 1.03-4.214 1.03zm-12.921 0c-1.128 0-2.206-.157-3.237-.47-1.03-.314-1.836-.708-2.418-1.183l.846-1.425c.581.441 1.312.802 2.193 1.081.88.28 1.797.42 2.748.42 1.268 0 2.206-.19 2.814-.572.608-.382.912-.92.912-1.615 0-.492-.168-.878-.502-1.158-.335-.28-.758-.491-1.269-.635-.51-.145-1.189-.284-2.034-.42-1.128-.204-2.035-.411-2.722-.623-.687-.212-1.273-.573-1.757-1.081-.485-.509-.727-1.213-.727-2.111 0-1.12.485-2.035 1.453-2.747.97-.713 2.317-1.069 4.043-1.069.899 0 1.797.115 2.695.344.899.229 1.639.53 2.22.903l-.82 1.45c-1.144-.764-2.51-1.145-4.095-1.145-1.198 0-2.1.203-2.708.61-.608.407-.912.941-.912 1.603 0 .508.172.915.516 1.22.343.306.77.53 1.281.675.51.144 1.216.292 2.114.445 1.11.203 2 .407 2.669.61.67.204 1.242.551 1.717 1.043.476.492.714 1.17.714 2.035 0 1.17-.507 2.098-1.52 2.785-1.012.687-2.417 1.03-4.214 1.03zM160.05 17.944c-1.34 0-2.462.411-3.37 1.234-.907.822-1.422 1.894-1.545 3.217h9.856c-.124-1.323-.639-2.395-1.546-3.217-.907-.823-2.039-1.234-3.395-1.234zm6.738 5.24l-.027.56h-11.626c.105 1.39.66 2.513 1.664 3.37 1.004.855 2.273 1.284 3.805 1.284.864 0 1.656-.149 2.379-.445.722-.297 1.347-.734 1.876-1.31l1.057 1.17c-.617.712-1.388 1.254-2.312 1.627-.925.373-1.942.56-3.052.56-1.427 0-2.691-.292-3.792-.877s-1.96-1.395-2.577-2.43c-.616-1.034-.924-2.204-.924-3.51 0-1.305.295-2.475.885-3.51.59-1.034 1.4-1.84 2.43-2.416 1.031-.576 2.19-.865 3.476-.865s2.44.289 3.461.865c1.022.577 1.823 1.378 2.405 2.404.58 1.026.872 2.2.872 3.522zm-22.989-6.792c1.744 0 3.131.488 4.162 1.463 1.03.975 1.545 2.395 1.545 4.26v7.758h-1.876v-7.58c0-1.39-.36-2.45-1.083-3.18-.722-.728-1.753-1.093-3.092-1.093-1.497 0-2.681.428-3.553 1.285-.872.856-1.308 2.039-1.308 3.548v7.02h-1.876V16.494h1.796v2.467c.511-.814 1.22-1.445 2.128-1.895.906-.45 1.96-.674 3.157-.674zm-14.19 13.48h1.877V11h-1.876v18.873zm-7.108 0h1.877V11H122.5v18.873zm-10.569-11.928c-1.339 0-2.462.411-3.369 1.234-.907.822-1.422 1.894-1.546 3.217h9.856c-.123-1.323-.638-2.395-1.545-3.217-.908-.823-2.04-1.234-3.396-1.234zm6.738 5.24l-.026.56h-11.627c.106 1.39.661 2.513 1.665 3.37 1.004.855 2.272 1.284 3.805 1.284.863 0 1.656-.149 2.378-.445.723-.297 1.348-.734 1.876-1.31l1.057 1.17c-.617.712-1.387 1.254-2.312 1.627-.925.373-1.942.56-3.052.56-1.427 0-2.69-.292-3.792-.877-1.1-.585-1.96-1.395-2.576-2.43-.616-1.034-.925-2.204-.925-3.51 0-1.305.295-2.475.885-3.51.59-1.034 1.4-1.84 2.431-2.416 1.03-.576 2.19-.865 3.475-.865 1.286 0 2.44.289 3.462.865 1.021.577 1.823 1.378 2.404 2.404s.872 2.2.872 3.522zm-16.118-11.116h1.876l-6.236 17.805H96.13l-5.417-15.185-5.443 15.185h-2.035L77 12.068h2.008l5.338 15.312 5.522-15.312h1.823l5.444 15.388 5.417-15.388zM223.835 45.898c.622-.881 1.46-1.548 2.516-2 1.055-.452 2.272-.678 3.649-.678v4.882c-.578-.046-.966-.068-1.166-.068-1.489 0-2.655.423-3.5 1.271-.844.848-1.266 2.119-1.266 3.814v8.61h-5.199V43.49h4.966v2.407zm-18.263 11.763c1.333 0 2.427-.458 3.283-1.373.855-.915 1.283-2.141 1.283-3.678 0-1.536-.428-2.763-1.283-3.678-.856-.915-1.95-1.373-3.283-1.373s-2.433.458-3.299 1.373c-.867.915-1.3 2.142-1.3 3.678 0 1.537.433 2.763 1.3 3.678.866.915 1.966 1.373 3.299 1.373zm0 4.339c-1.888 0-3.582-.401-5.082-1.203-1.5-.803-2.672-1.916-3.516-3.34-.844-1.423-1.266-3.039-1.266-4.847 0-1.808.422-3.424 1.266-4.847.844-1.424 2.016-2.537 3.516-3.34 1.5-.802 3.194-1.203 5.082-1.203s3.577.401 5.066 1.204c1.488.802 2.655 1.915 3.499 3.339.844 1.423 1.266 3.04 1.266 4.847 0 1.808-.422 3.424-1.266 4.848-.844 1.423-2.011 2.536-3.5 3.339-1.488.802-3.177 1.203-5.065 1.203zm-12.297-4.881l1.4 3.729c-.512.384-1.14.672-1.884.864-.744.192-1.527.288-2.35.288-2.132 0-3.781-.554-4.948-1.661-1.166-1.107-1.75-2.735-1.75-4.881v-7.492h-2.766v-4.068h2.767v-4.44h5.199v4.44h4.465v4.068h-4.465v7.424c0 .768.194 1.361.583 1.78.388.418.938.627 1.65.627.821 0 1.521-.226 2.099-.678zM171.813 62c-1.91 0-3.627-.401-5.15-1.203-1.52-.803-2.71-1.916-3.565-3.34-.855-1.423-1.283-3.039-1.283-4.847 0-1.808.428-3.424 1.283-4.847.855-1.424 2.044-2.537 3.566-3.34 1.522-.802 3.238-1.203 5.149-1.203 1.888 0 3.538.401 4.949 1.204 1.41.802 2.438 1.949 3.082 3.44l-4.032 2.204c-.933-1.673-2.277-2.509-4.032-2.509-1.356 0-2.478.452-3.366 1.356-.889.904-1.334 2.136-1.334 3.695 0 1.56.445 2.791 1.334 3.695.888.904 2.01 1.356 3.366 1.356 1.777 0 3.121-.836 4.032-2.508l4.032 2.237c-.644 1.446-1.671 2.576-3.082 3.39-1.411.813-3.06 1.22-4.95 1.22zm-21.429-14.78c-1.177 0-2.166.34-2.966 1.017-.8.678-1.288 1.605-1.466 2.78h8.831c-.177-1.153-.666-2.074-1.466-2.763-.8-.689-1.777-1.034-2.933-1.034zm9.298 5.458c0 .068-.033.542-.1 1.424H146.02c.244 1.13.822 2.022 1.733 2.678.91.655 2.044.983 3.399.983.933 0 1.76-.141 2.483-.424.722-.282 1.394-.729 2.016-1.34l2.766 3.052c-1.689 1.966-4.155 2.949-7.399 2.949-2.021 0-3.81-.401-5.365-1.203-1.555-.803-2.755-1.916-3.6-3.34-.843-1.423-1.266-3.039-1.266-4.847 0-1.785.417-3.395 1.25-4.83s1.978-2.554 3.433-3.356c1.455-.803 3.082-1.204 4.882-1.204 1.755 0 3.344.385 4.766 1.153 1.422.768 2.538 1.87 3.349 3.305.81 1.435 1.216 3.102 1.216 5zm-21.328 4.44l1.4 3.73c-.511.384-1.14.672-1.883.864-.745.192-1.528.288-2.35.288-2.133 0-3.783-.554-4.949-1.661s-1.75-2.735-1.75-4.881v-7.492h-2.766v-4.068h2.766v-4.44h5.2v4.44h4.465v4.068h-4.466v7.424c0 .768.195 1.361.583 1.78.39.418.94.627 1.65.627.822 0 1.522-.226 2.1-.678zm-22.929-9.898c-1.177 0-2.166.34-2.965 1.017-.8.678-1.29 1.605-1.467 2.78h8.832c-.178-1.153-.667-2.074-1.467-2.763-.8-.689-1.777-1.034-2.933-1.034zm9.298 5.458c0 .068-.033.542-.1 1.424H111.06c.244 1.13.822 2.022 1.733 2.678.91.655 2.044.983 3.399.983.933 0 1.76-.141 2.483-.424.722-.282 1.394-.729 2.016-1.34l2.766 3.052C121.77 61.017 119.302 62 116.06 62c-2.022 0-3.81-.401-5.366-1.203-1.555-.803-2.755-1.916-3.599-3.34-.844-1.423-1.266-3.039-1.266-4.847 0-1.785.416-3.395 1.25-4.83.833-1.435 1.977-2.554 3.432-3.356 1.455-.803 3.083-1.204 4.882-1.204 1.755 0 3.344.385 4.766 1.153 1.422.768 2.538 1.87 3.349 3.305.81 1.435 1.216 3.102 1.216 5zM85.4 57.22h4.932c2.333 0 4.194-.66 5.582-1.983 1.389-1.322 2.083-3.113 2.083-5.373 0-2.26-.694-4.05-2.083-5.373-1.388-1.322-3.25-1.983-5.582-1.983h-4.932V57.22zM80 61.73V38h10.598c2.532 0 4.77.492 6.715 1.475 1.944.982 3.454 2.367 4.532 4.152 1.078 1.786 1.616 3.864 1.616 6.237s-.538 4.452-1.616 6.238c-1.078 1.785-2.588 3.17-4.532 4.152-1.944.983-4.183 1.475-6.715 1.475H80zM43.139 36.544c-.574.629-1.347.985-2.177 1.005-.531.014-1.06-.118-1.528-.38-.99-.552-1.625-1.628-1.651-2.807-.018-.87.286-1.698.86-2.326.573-.629 1.348-.987 2.177-1.007 1.662-.035 3.141 1.456 3.18 3.187.017.87-.29 1.697-.861 2.328m-4.659 8.553c-.945.637-2.148.688-3.14.134-.47-.262-.868-.648-1.157-1.119-.448-.733-.596-1.606-.418-2.456.176-.852.66-1.578 1.358-2.049 1.39-.935 3.397-.486 4.295.982.927 1.519.505 3.539-.938 4.508M34.713 29.14c-1.512-.844-2.09-2.823-1.285-4.41.805-1.589 2.691-2.192 4.204-1.349 1.514.845 2.09 2.822 1.286 4.411-.804 1.588-2.69 2.193-4.205 1.348m-8.349 16.478c-1.513-.844-2.09-2.822-1.285-4.41.804-1.587 2.69-2.192 4.203-1.348 1.514.844 2.09 2.824 1.286 4.41-.804 1.589-2.69 2.193-4.204 1.348m-3.185-7.642c-.532.01-1.058-.121-1.525-.381-.993-.554-1.626-1.63-1.653-2.808-.019-.872.286-1.697.86-2.327.574-.63 1.346-.988 2.176-1.009 1.661-.037 3.141 1.456 3.178 3.188.04 1.797-1.323 3.294-3.036 3.337m2.339-14.075c1.392-.935 3.399-.483 4.294.983.925 1.514.504 3.535-.938 4.506-.945.637-2.148.688-3.139.135-.467-.26-.867-.647-1.155-1.116-.925-1.517-.504-3.54.938-4.508"/>
        <g transform="translate(23)">
            <mask id="prefix__b" fill="#fff">
                <use xlink:href="#prefix__a"/>
            </mask>
            <path fill="#A9A9A9" d="M8.975 14.393c-2.607.048-4.77-2.152-4.816-4.91-.046-2.753 2.045-5.037 4.65-5.085 2.611-.048 4.773 2.158 4.819 4.911.047 2.757-2.041 5.036-4.653 5.084M8.738.026C3.845.116-.068 4.39.018 9.558c.084 5.168 4.138 9.296 9.03 9.206 4.896-.09 8.808-4.367 8.723-9.533-.084-5.169-4.137-9.295-9.033-9.205" mask="url(#prefix__b)"/>
        </g>
        <g transform="translate(24 54)">
            <mask id="prefix__d" fill="#fff">
                <use xlink:href="#prefix__c"/>
            </mask>
            <path fill="#A9A9A9" d="M9.19 14.154c-2.608.046-4.772-2.084-4.817-4.749-.046-2.668 2.045-4.876 4.65-4.923 2.611-.046 4.773 2.088 4.819 4.754.047 2.665-2.041 4.87-4.653 4.918M8.952.254C4.059.34.146 4.481.232 9.478c.085 5 4.138 8.994 9.03 8.907 4.896-.088 8.808-4.224 8.723-9.223-.084-5-4.136-8.997-9.033-8.91" mask="url(#prefix__d)"/>
        </g>
        <path fill="#A9A9A9" d="M4.775 20.685c.827-1.53 2.414-2.502 4.153-2.532.815-.015 1.628.184 2.35.578 2.332 1.262 3.206 4.187 1.952 6.526-.822 1.532-2.41 2.5-4.147 2.53-.815.015-1.63-.184-2.35-.571-2.338-1.267-3.212-4.197-1.958-6.53m-.042 10.238c1.359.736 2.887 1.102 4.42 1.075 3.248-.057 6.229-1.872 7.77-4.744 2.357-4.386.716-9.874-3.654-12.237-4.227-2.292-9.92-.561-12.193 3.665-2.356 4.381-.714 9.874 3.657 12.24M59.223 51.251c-1.208 2.256-4.24 3.186-6.5 1.958-1.128-.612-1.95-1.63-2.32-2.86-.37-1.231-.239-2.538.372-3.669.82-1.53 2.407-2.504 4.15-2.535.81-.014 1.628.19 2.353.577 2.329 1.262 3.203 4.189 1.945 6.53m.046-10.236c-4.241-2.294-9.925-.548-12.187 3.668-1.135 2.128-1.392 4.56-.7 6.872.69 2.316 2.237 4.217 4.347 5.364 1.36.734 2.882 1.105 4.422 1.079 3.252-.057 6.229-1.876 7.775-4.746 2.35-4.384.716-9.87-3.657-12.237M59.64 24.19c-.325 1.24-1.11 2.285-2.22 2.935-.71.42-1.52.646-2.331.66-1.737.031-3.357-.883-4.233-2.387-.645-1.111-.824-2.412-.5-3.66.325-1.24 1.114-2.284 2.219-2.934.705-.416 1.513-.645 2.333-.659 1.736-.03 3.36.89 4.232 2.384.65 1.116.828 2.413.5 3.66m-9.177-9.026c-2.072 1.217-3.55 3.175-4.164 5.507-.612 2.336-.275 4.765.932 6.85 1.64 2.823 4.682 4.536 7.932 4.479 1.532-.027 3.05-.453 4.374-1.234 2.074-1.216 3.548-3.173 4.166-5.508.608-2.336.275-4.77-.932-6.85-2.412-4.146-8.155-5.679-12.308-3.244M12.423 54.129c-.71.417-1.516.638-2.328.652-1.737.03-3.365-.885-4.242-2.382-.646-1.113-.825-2.41-.502-3.66.323-1.244 1.11-2.292 2.223-2.937.705-.415 1.51-.644 2.323-.658 1.742-.031 3.365.888 4.244 2.39 1.339 2.297.566 5.254-1.718 6.595M5.46 42.162C3.386 43.38 1.908 45.337 1.3 47.67c-.612 2.336-.28 4.77.933 6.854 1.641 2.816 4.68 4.53 7.941 4.474 1.532-.027 3.041-.451 4.374-1.225 4.282-2.517 5.726-8.067 3.225-12.365-2.414-4.146-8.156-5.68-12.313-3.247"/>
    </g>
</svg>
