<svg xmlns="http://www.w3.org/2000/svg" xmlns:xlink="http://www.w3.org/1999/xlink" width="123" height="110" viewBox="0 0 123 110">
    <defs>
        <path id="prefix__a" d="M0.539 0.244L58.048 0.244 58.048 109.941 0.539 109.941z"/>
    </defs>
    <g fill="none" fill-rule="evenodd">
        <g transform="translate(63.44)">
            <mask id="prefix__b" fill="#fff">
                <use xlink:href="#prefix__a"/>
            </mask>
            <path fill="#FFF" d="M56.244 53.095c-1.472-8.77-3.883-16.262-7.369-22.903C42.062 17.21 31.771 7.542 18.29 1.452 12.183-1.302 5.783.78 3.069 6.409c-.846 1.754-1.382 3.86-1.688 6.625-.298 2.698-.186 10.126-.096 16.094.048 3.168.09 5.91.047 6.846-.431 3.16 1.173 6.054 4.766 8.601 1.15.816 2.643 1.032 3.996.58 1.347-.45 2.353-1.468 2.762-2.792.334-1.081.523-2.27.548-3.434.057-2.732-.789-5.247-1.607-7.68l-.217-.649c-.5-1.497.062-2.82 1.465-3.452 1.314-.593 2.896-.043 3.528 1.222 1.965 3.933 2.874 7.05 2.947 10.105.037 1.515-.133 3.041-.313 4.655-.083.746-.167 1.499-.231 2.26l-.05.585.498.318c3.156 2.014 6.254 2.877 10.358 2.89 2.05.006 3.332 1.207 3.346 3.135.013 1.714-1.411 2.981-3.385 3.012-2.716.035-5.482-.376-8.211-1.244-.285-.09-.575-.164-.886-.243l-2.245-.59.64 1.757c.17.466.34.915.505 1.354.372.984.723 1.913 1.002 2.844.327 1.09.92 1.857 1.922 2.485 3.307 2.072 5.969 4.785 7.91 8.062.994 1.676.624 3.505-.898 4.45-1.525.946-3.181.516-4.32-1.123-.23-.33-.468-.654-.705-.978l-.69-.948-1.708.31v.814c0 .33.01.662.018.994.018.69.035 1.341-.027 1.973l-.176 1.778c-.407 4.127-.828 8.397-1.362 12.573-.118.93-.527 1.684-1.181 2.183-.625.476-1.441.677-2.296.565-1.776-.233-2.875-1.751-2.675-3.692.082-.787.204-1.595.322-2.376.073-.485.146-.97.21-1.455 1.146-8.533 1.105-15.06-.13-21.162-.462-2.277-1.182-4.88-3.03-6.931-2.48-2.751-5.75-4.44-8.912-6.074l-1.793-.927-.237 1.628c-.032.196-.05.33-.05.466-.023 2.973-.05 5.947-.078 8.92-.069 7.415-.14 15.083-.12 22.626.015 5.285 1.22 10.087 3.584 14.273 2.653 4.7 6.32 7.707 10.898 8.937 6.51 1.75 13.523 3.363 20.756 3.363.15 0 .3 0 .45-.002 5.689-.052 10.211-.875 14.231-2.587 3.303-1.407 5.315-3.908 5.82-7.234.352-2.329.58-4.702.8-6.999l.132-1.35c1.373-13.959 1.055-26.61-.97-38.674" mask="url(#prefix__b)"/>
        </g>
        <path fill="#FFF" d="M57.362 57.187l-.05-4.841c-.002-.271-.02-.542-.045-.887l-.138-2.208-1.401.85c-.722.437-1.424.858-2.112 1.271-1.502.9-2.92 1.752-4.329 2.647-2.936 1.869-4.85 4.633-5.686 8.215-1.76 7.542-1.284 15.112-.672 20.866.087.815.205 1.633.32 2.424.19 1.318.369 2.562.422 3.824.033.797-.248 1.532-.793 2.073-.597.59-1.46.898-2.382.865-1.753-.078-2.762-1.13-3.086-3.215-.839-5.402-1.527-10.28-1.452-15.265.006-.375.004-.748.003-1.123l-.001-2.525-1.6 1.256c-.719.565-1.158 1.175-1.546 1.713l-.112.155c-.79 1.09-1.782 1.498-3.029 1.26-1.377-.267-2.198-1.046-2.509-2.382-.217-.934.001-1.812.728-2.935 2.078-3.204 4.777-5.86 8.02-7.893.417-.26 1-.679 1.239-1.304.472-1.23.897-2.458 1.346-3.758l1.12-3.211-2.303.677c-.338.098-.655.19-.972.287-2.863.88-5.586 1.26-8.325 1.177-.945-.03-1.82-.443-2.4-1.132-.56-.668-.796-1.514-.664-2.385.25-1.649 1.435-2.633 3.172-2.633h.021c4.19 0 7.702-1.003 10.731-3.068l.535-.363-.125-.632c-1.147-5.796-1.138-7.067.075-11.331.44-1.553 1.079-3.234 2.007-5.291.624-1.387 2.116-1.986 3.549-1.422 1.426.56 2.034 1.927 1.55 3.482-.107.34-.225.678-.343 1.015-.141.404-.282.808-.406 1.217-.732 2.43-1.466 5.281-.888 8.365.34 1.814 1.429 3.281 2.911 3.924 1.25.54 2.65.424 3.843-.323 2.23-1.394 5.186-3.634 5.094-6.962-.015-.57.009-2.062.04-3.951.122-7.627.352-21.821-.97-25.782-1.054-3.156-3.19-5.619-6.013-6.936-2.728-1.272-5.91-1.323-8.961-.14-2.153.833-4.193 1.91-6.076 2.95-12.817 7.08-22.242 17.735-28.014 31.666-3.52 8.497-5.548 18.207-6.381 30.559-.667 9.892-.242 20.502 1.337 33.388.474 3.862 2.59 6.58 6.288 8.08 4.134 1.676 8.53 2.505 13.325 2.505 1.715 0 3.482-.106 5.305-.317 4.497-.521 8.996-1.464 13.348-2.376l1.325-.277c6.519-1.358 11.243-5.479 14.041-12.245 2.103-5.083 2.346-10.414 2.307-14.96-.065-7.546-.141-15.092-.218-22.638"/>
    </g>
</svg>
