<svg xmlns="http://www.w3.org/2000/svg" xmlns:xlink="http://www.w3.org/1999/xlink" width="96" height="115" viewBox="0 0 96 115">
    <defs>
        <path id="prefix__a" d="M0 0.369L95.65 0.369 95.65 114.401 0 114.401z"/>
    </defs>
    <g fill="none" fill-rule="evenodd">
        <path fill="#FFF" d="M47.8 52.644c-3.198-.111-6.017 2.512-5.843 5.945.119 2.338 1.33 4.04 3.403 5.09.284.143.368.302.365.607-.015 1.662-.007 3.323-.007 4.985v1.997h3.552v-2.023c0-1.661.006-3.323-.006-4.984-.002-.289.06-.449.35-.567.394-.16.772-.379 1.127-.617 2.06-1.384 2.969-3.994 2.27-6.388-.618-2.118-2.673-3.956-5.211-4.045M58.146 35.919c-1.153-2.958-3.246-5.004-6.275-6.1-1.922-.696-3.915-.834-5.929-.465-3.476.635-6.024 2.498-7.648 5.577-1.324 2.513-1.219 5.22-1.148 7.924 0 .022.037.043.06.068h21.682c0-.95-.008-1.875.002-2.8.015-1.447-.216-2.85-.744-4.204"/>
        <mask id="prefix__b" fill="#fff">
            <use xlink:href="#prefix__a"/>
        </mask>
        <path fill="#FFF" d="M67.95 72.64c-.005 2.509-2.08 4.567-4.604 4.57-10.332.013-20.663.013-30.995 0-2.5-.004-4.581-2.06-4.586-4.54-.02-8.589-.018-17.177-.002-25.765.005-2.403 1.945-4.37 4.37-4.523.208-.012.416-.027.713-.046 0-1.155-.034-2.266.005-3.374.235-6.617 4.734-12.294 11.206-13.943 4.952-1.262 9.503-.258 13.462 2.976 3.038 2.481 4.803 5.716 5.225 9.61.15 1.38.103 2.782.145 4.175.004.175 0 .35 0 .529.52.063.998.081 1.458.184 2.07.463 3.601 2.318 3.604 4.428.012 8.573.015 17.147-.001 25.72m23.656-54.004c-2.733-.632-5.492-1.193-8.176-1.994C71.705 13.147 60.75 8.01 50.56 1.268 48.73.055 46.94.077 45.08 1.287 32.446 9.513 18.895 15.602 4.033 18.652c-2.81.577-4.006 2.08-4.023 4.954C-.01 26.503.005 29.4.005 32.298c.305 7.526.947 15.006 2.34 22.415 2.732 14.527 9.152 27.252 18.997 38.302 6.87 7.712 14.771 14.26 23.254 20.145 2.393 1.66 4.09 1.652 6.497-.01 5.592-3.86 10.913-8.057 15.902-12.66 6.368-5.875 11.961-12.403 16.479-19.789 7.424-12.139 10.648-25.529 11.61-39.525.4-5.814.416-11.655.564-17.485.073-2.905-1.188-4.394-4.042-5.054" mask="url(#prefix__b)"/>
    </g>
</svg>
