<?xml version="1.0" encoding="utf-8"?>
<!-- Generator: Adobe Illustrator 24.0.1, SVG Export Plug-In . SVG Version: 6.00 Build 0)  -->
<svg version="1.1"
	 id="Layer_1" xmlns:inkscape="http://www.inkscape.org/namespaces/inkscape" xmlns:ns1="http://www.inkscape.org/namespaces/inkscape" xmlns:sketch="http://www.bohemiancoding.com/sketch/ns" xmlns:sodipodi="http://sodipodi.sourceforge.net/DTD/sodipodi-0.dtd"
	 xmlns="http://www.w3.org/2000/svg" xmlns:xlink="http://www.w3.org/1999/xlink" x="0px" y="0px" viewBox="0 0 1000 1000"
	 style="enable-background:new 0 0 1000 1000;" xml:space="preserve">
<style type="text/css">
	.st0{fill:#3078BA;}
	.st1{fill:#999999;}
</style>
<g>
	<g transform="matrix(0.6648,0,0,0.6533,201.4101,160.1867)">
		<g transform="matrix(1,0,0,1,0,90.75)">
			<path class="st0" d="M320.1,276h10.4l-34.6,102.7h-11.4l-30.1-87.6l-30.2,87.6h-11.3L178.3,276h11.1l29.6,88.3l30.7-88.3h10.1
				l30.2,88.7L320.1,276z M409.6,340.1l-0.1,3.2h-64.6c0.6,8,3.7,14.5,9.2,19.4s12.6,7.4,21.1,7.4l0,0c4.8,0,9.2-0.9,13.2-2.6
				c4-1.7,7.5-4.2,10.4-7.6l0,0l5.9,6.7c-3.4,4.1-7.7,7.2-12.8,9.4c-5.1,2.2-10.8,3.2-16.9,3.2l0,0c-7.9,0-14.9-1.7-21-5.1
				c-6.1-3.4-10.9-8-14.3-14s-5.1-12.7-5.1-20.2l0,0c0-7.5,1.6-14.3,4.9-20.2c3.3-6,7.8-10.6,13.5-13.9c5.7-3.3,12.2-5,19.3-5l0,0
				c7.1,0,13.5,1.7,19.2,5c5.7,3.3,10.1,7.9,13.3,13.9C408,325.7,409.6,332.5,409.6,340.1L409.6,340.1z M372.2,309.9
				c-7.4,0-13.7,2.4-18.7,7.1c-5,4.7-7.9,10.9-8.6,18.6l0,0h54.7c-0.7-7.6-3.5-13.8-8.6-18.6C386,312.3,379.7,309.9,372.2,309.9
				L372.2,309.9z M430.9,378.7V269.8h10.4v108.8L430.9,378.7L430.9,378.7z M470.3,378.7V269.8h10.4v108.8L470.3,378.7L470.3,378.7z
				 M549.1,300.9c9.7,0,17.4,2.8,23.1,8.4c5.7,5.6,8.6,13.8,8.6,24.6l0,0v44.7h-10.4v-43.7c0-8-2-14.1-6-18.3s-9.7-6.3-17.2-6.3l0,0
				c-8.3,0-14.9,2.5-19.7,7.4c-4.8,4.9-7.3,11.8-7.3,20.5l0,0v40.5h-10.4v-77.2h10v14.2c2.8-4.7,6.8-8.3,11.8-10.9
				C536.6,302.2,542.4,300.9,549.1,300.9L549.1,300.9z M676.7,340.1l-0.1,3.2h-64.5c0.6,8,3.7,14.5,9.2,19.4
				c5.6,4.9,12.6,7.4,21.1,7.4l0,0c4.8,0,9.2-0.9,13.2-2.6c4-1.7,7.5-4.2,10.4-7.6l0,0l5.9,6.7c-3.4,4.1-7.7,7.2-12.8,9.4
				c-5.1,2.2-10.8,3.2-16.9,3.2l0,0c-7.9,0-14.9-1.7-21-5.1c-6.1-3.4-10.9-8-14.3-14c-3.4-6-5.1-12.7-5.1-20.2l0,0
				c0-7.5,1.6-14.3,4.9-20.2c3.3-6,7.8-10.6,13.5-13.9c5.7-3.3,12.2-5,19.3-5l0,0c7.1,0,13.5,1.7,19.2,5c5.7,3.3,10.1,7.9,13.3,13.9
				C675.1,325.7,676.7,332.5,676.7,340.1L676.7,340.1z M639.3,309.9c-7.4,0-13.7,2.4-18.7,7.1c-5,4.7-7.9,10.9-8.6,18.6l0,0h54.7
				c-0.7-7.6-3.5-13.8-8.6-18.6C653.1,312.3,646.8,309.9,639.3,309.9L639.3,309.9z M718.6,379.4c-6.3,0-12.2-0.9-18-2.7
				c-5.8-1.8-10.2-4.1-13.4-6.8l0,0l4.7-8.2c3.2,2.5,7.3,4.6,12.2,6.2s10,2.4,15.3,2.4l0,0c7,0,12.2-1.1,15.6-3.3
				c3.4-2.2,5.1-5.3,5.1-9.3l0,0c0-2.8-0.9-5.1-2.8-6.7c-1.9-1.6-4.2-2.8-7-3.7c-2.8-0.8-6.6-1.6-11.3-2.4l0,0
				c-6.3-1.2-11.3-2.4-15.1-3.6s-7.1-3.3-9.8-6.2s-4-7-4-12.2l0,0c0-6.5,2.7-11.7,8.1-15.8c5.4-4.1,12.9-6.2,22.4-6.2l0,0
				c5,0,10,0.7,15,2c5,1.3,9.1,3.1,12.3,5.2l0,0l-4.5,8.4c-6.4-4.4-13.9-6.6-22.7-6.6l0,0c-6.6,0-11.7,1.2-15,3.5
				c-3.3,2.3-5.1,5.4-5.1,9.2l0,0c0,2.9,1,5.3,2.9,7c1.9,1.8,4.3,3.1,7.1,3.9c2.8,0.8,6.7,1.7,11.7,2.6l0,0
				c6.2,1.2,11.1,2.3,14.8,3.5c3.7,1.2,6.9,3.2,9.5,6c2.6,2.8,4,6.7,4,11.7l0,0c0,6.7-2.8,12.1-8.4,16.1S728.6,379.4,718.6,379.4
				L718.6,379.4z M790.4,379.4c-6.3,0-12.2-0.9-18-2.7c-5.7-1.8-10.2-4.1-13.4-6.8l0,0l4.7-8.2c3.2,2.5,7.3,4.6,12.2,6.2
				c4.9,1.6,10,2.4,15.3,2.4l0,0c7,0,12.2-1.1,15.6-3.3c3.4-2.2,5.1-5.3,5.1-9.3l0,0c0-2.8-0.9-5.1-2.8-6.7c-1.9-1.6-4.2-2.8-7-3.7
				c-2.8-0.8-6.6-1.6-11.3-2.4l0,0c-6.3-1.2-11.3-2.4-15.1-3.6s-7.1-3.3-9.8-6.2s-4-7-4-12.2l0,0c0-6.5,2.7-11.7,8.1-15.8
				c5.4-4.1,12.9-6.2,22.4-6.2l0,0c5,0,10,0.7,15,2c5,1.3,9.1,3.1,12.3,5.2l0,0l-4.5,8.4c-6.4-4.4-13.9-6.6-22.7-6.6l0,0
				c-6.6,0-11.7,1.2-15,3.5c-3.3,2.3-5.1,5.4-5.1,9.2l0,0c0,2.9,1,5.3,2.9,7c1.9,1.8,4.3,3.1,7.1,3.9c2.8,0.8,6.7,1.7,11.7,2.6l0,0
				c6.2,1.2,11.1,2.3,14.8,3.5c3.7,1.2,6.9,3.2,9.5,6c2.6,2.8,4,6.7,4,11.7l0,0c0,6.7-2.8,12.1-8.4,16.1
				C808.1,377.4,800.3,379.4,790.4,379.4L790.4,379.4z"/>
		</g>
	</g>
	<g transform="matrix(1.0467,0,0,1.0407,95.0495,206.7527)">
		<g transform="matrix(1,0,0,1,0,90.75)">
			<path class="st0" d="M222.1,267.4v-82.6h37.5c9,0,16.9,1.7,23.8,5.1c6.9,3.4,12.2,8.2,16,14.5c3.8,6.2,5.7,13.5,5.7,21.7l0,0
				c0,8.3-1.9,15.5-5.7,21.7s-9.2,11-16,14.5c-6.9,3.4-14.8,5.1-23.8,5.1l0,0H222.1z M241.2,251.7h17.5c8.3,0,14.8-2.3,19.8-6.9
				c5-4.6,7.4-10.8,7.4-18.7l0,0c0-7.9-2.5-14.1-7.4-18.7c-4.9-4.6-11.6-6.9-19.8-6.9l0,0h-17.5V251.7z M380.5,235.9
				c0,0.2-0.1,1.9-0.4,5l0,0h-48c0.9,3.9,2.9,7,6.1,9.3s7.2,3.4,12,3.4l0,0c3.3,0,6.2-0.5,8.8-1.5s4.9-2.5,7.1-4.7l0,0l9.8,10.6
				c-6,6.8-14.7,10.3-26.2,10.3l0,0c-7.2,0-13.5-1.4-19-4.2c-5.5-2.8-9.8-6.7-12.7-11.6c-3-5-4.5-10.6-4.5-16.9l0,0
				c0-6.2,1.5-11.8,4.4-16.8c3-5,7-8.9,12.2-11.7s10.9-4.2,17.3-4.2l0,0c6.2,0,11.8,1.3,16.9,4c5,2.7,9,6.5,11.9,11.5
				C379,223.5,380.5,229.3,380.5,235.9L380.5,235.9z M347.5,216.9c-4.2,0-7.7,1.2-10.5,3.5c-2.8,2.4-4.6,5.6-5.2,9.7l0,0h31.3
				c-0.6-4-2.4-7.2-5.2-9.6C355.1,218.1,351.6,216.9,347.5,216.9L347.5,216.9z M428.7,251.4l5,13c-1.8,1.3-4,2.3-6.7,3
				c-2.6,0.7-5.4,1-8.3,1l0,0c-7.6,0-13.4-1.9-17.5-5.8c-4.1-3.9-6.2-9.5-6.2-17l0,0v-26.1h-9.8v-14.2h9.8v-15.4h18.4v15.5h15.8
				v14.1h-15.8v25.8c0,2.7,0.7,4.7,2.1,6.2s3.3,2.2,5.8,2.2l0,0C424.2,253.7,426.7,252.9,428.7,251.4L428.7,251.4z M504.2,235.9
				c0,0.2-0.1,1.9-0.4,5l0,0h-48c0.9,3.9,2.9,7,6.1,9.3c3.2,2.3,7.2,3.4,12,3.4l0,0c3.3,0,6.2-0.5,8.8-1.5s4.9-2.5,7.1-4.7l0,0
				l9.8,10.6c-6,6.8-14.7,10.3-26.2,10.3l0,0c-7.2,0-13.5-1.4-19-4.2c-5.5-2.8-9.8-6.7-12.7-11.6c-3-5-4.5-10.6-4.5-16.9l0,0
				c0-6.2,1.5-11.8,4.4-16.8c3-5,7-8.9,12.2-11.7c5.2-2.8,10.9-4.2,17.3-4.2l0,0c6.2,0,11.8,1.3,16.9,4c5,2.7,9,6.5,11.9,11.5
				S504.2,229.3,504.2,235.9L504.2,235.9z M471.3,216.9c-4.2,0-7.7,1.2-10.5,3.5s-4.6,5.6-5.2,9.7l0,0h31.3c-0.6-4-2.4-7.2-5.2-9.6
				C478.9,218.1,475.4,216.9,471.3,216.9L471.3,216.9z M547.2,268.3c-6.8,0-12.8-1.4-18.2-4.2c-5.4-2.8-9.6-6.6-12.7-11.6
				c-3-5-4.5-10.6-4.5-16.9l0,0c0-6.3,1.5-11.9,4.5-16.9s7.2-8.8,12.6-11.6c5.4-2.8,11.5-4.2,18.2-4.2l0,0c6.7,0,12.5,1.4,17.5,4.2
				s8.6,6.8,10.9,12l0,0l-14.3,7.7c-3.3-5.8-8.1-8.7-14.3-8.7l0,0c-4.8,0-8.8,1.6-11.9,4.7c-3.1,3.1-4.7,7.4-4.7,12.9l0,0
				c0,5.4,1.6,9.7,4.7,12.9c3.1,3.1,7.1,4.7,11.9,4.7l0,0c6.3,0,11.1-2.9,14.3-8.7l0,0l14.3,7.8c-2.3,5-5.9,9-10.9,11.8
				C559.7,266.9,553.9,268.3,547.2,268.3L547.2,268.3z M623.2,251.4l5,13c-1.8,1.3-4,2.3-6.7,3c-2.7,0.7-5.4,1-8.3,1l0,0
				c-7.6,0-13.4-1.9-17.5-5.8c-4.1-3.9-6.2-9.5-6.2-17l0,0v-26.1h-9.8v-14.2h9.8v-15.4h18.4v15.5h15.8v14.1h-15.8v25.8
				c0,2.7,0.7,4.7,2.1,6.2s3.3,2.2,5.8,2.2l0,0C618.7,253.7,621.1,252.9,623.2,251.4L623.2,251.4z M666.7,268.3
				c-6.7,0-12.7-1.4-18-4.2c-5.3-2.8-9.5-6.7-12.4-11.6c-3-5-4.5-10.6-4.5-16.9l0,0c0-6.3,1.5-11.9,4.5-16.9s7.1-8.8,12.4-11.6
				c5.3-2.8,11.3-4.2,18-4.2l0,0c6.7,0,12.7,1.4,17.9,4.2c5.3,2.8,9.4,6.7,12.4,11.6c3,5,4.5,10.6,4.5,16.9l0,0
				c0,6.3-1.5,11.9-4.5,16.9c-3,5-7.1,8.8-12.4,11.6C679.3,266.9,673.4,268.3,666.7,268.3L666.7,268.3z M666.7,253.2
				c4.7,0,8.6-1.6,11.6-4.8c3-3.2,4.5-7.5,4.5-12.8l0,0c0-5.3-1.5-9.6-4.5-12.8c-3-3.2-6.9-4.8-11.6-4.8l0,0
				c-4.7,0-8.6,1.6-11.7,4.8c-3.1,3.2-4.6,7.5-4.6,12.8l0,0c0,5.3,1.5,9.6,4.6,12.8C658.1,251.6,662,253.2,666.7,253.2L666.7,253.2z
				 M731.4,212.3c2.2-3.1,5.2-5.4,8.9-7c3.7-1.6,8-2.4,12.9-2.4l0,0v17c-2-0.2-3.4-0.2-4.1-0.2l0,0c-5.3,0-9.4,1.5-12.4,4.4
				c-3,3-4.5,7.4-4.5,13.3l0,0v30h-18.4v-63.5h17.6V212.3z"/>
		</g>
	</g>
</g>
<g>
	<g>
		<g transform="matrix(2.9777,-0.052,0.052,2.9777,308.3868,1.2802)">
			<g>
				<path class="st1" d="M-41,132.4c-4.5,0-8.2,3.7-8.2,8.2s3.7,8.2,8.2,8.2c4.5,0,8.2-3.7,8.2-8.2C-32.8,136.1-36.4,132.4-41,132.4
					z M-41,145c-2.4,0-4.4-1.9-4.4-4.4s1.9-4.4,4.4-4.4c2.4,0,4.4,1.9,4.4,4.4C-36.6,143-38.6,145-41,145z"/>
			</g>
		</g>
		<g transform="matrix(2.9777,-0.052,0.052,2.9777,310.3868,103.2802)">
			<g>
				<path class="st1" d="M-41.8,143.6c-4.5,0-8.2,3.7-8.2,8.2c0,4.5,3.7,8.2,8.2,8.2s8.2-3.7,8.2-8.2
					C-33.6,147.3-37.3,143.6-41.8,143.6z M-41.8,156.2c-2.4,0-4.4-1.9-4.4-4.4s1.9-4.4,4.4-4.4c2.4,0,4.4,1.9,4.4,4.4
					C-37.5,154.2-39.4,156.2-41.8,156.2z"/>
			</g>
		</g>
		<g transform="matrix(2.9777,-0.052,0.052,2.9777,308.3868,1.2802)">
			<g>
				<path class="st1" d="M-67.9,147.5c-2.3,3.9-0.9,8.9,3,11.2s8.9,0.9,11.2-3c2.3-3.9,0.9-8.9-3-11.2
					C-60.6,142.3-65.7,143.6-67.9,147.5z M-57,153.8c-1.2,2.1-3.9,2.8-6,1.6s-2.8-3.9-1.6-6c1.2-2.1,3.9-2.8,6-1.6
					C-56.6,149-55.8,151.7-57,153.8z"/>
			</g>
		</g>
		<g transform="matrix(2.9777,-0.052,0.052,2.9777,310.3868,103.2802)">
			<g>
				<path class="st1" d="M-29,136.7c-2.3,3.9-0.9,8.9,3,11.2c3.9,2.3,8.9,0.9,11.2-3c2.3-3.9,0.9-8.9-3-11.2
					C-21.7,131.3-26.8,132.8-29,136.7z M-18.1,142.9c-1.2,2.1-3.9,2.8-6,1.6s-2.8-3.9-1.6-6s3.9-2.8,6-1.6S-16.9,140.8-18.1,142.9z"
					/>
			</g>
		</g>
		<g transform="matrix(2.9777,-0.052,0.052,2.9777,308.3868,1.2802)">
			<g>
				<path class="st1" d="M-68.4,178.4c2.3,3.9,7.3,5.3,11.2,3c3.9-2.3,5.3-7.3,3-11.2c-2.3-3.9-7.3-5.3-11.2-3
					C-69.2,169.5-70.6,174.5-68.4,178.4z M-57.4,172.1c1.2,2.1,0.5,4.8-1.6,6s-4.8,0.5-6-1.6c-1.2-2.1-0.5-4.8,1.6-6
					C-61.3,169.3-58.6,170.1-57.4,172.1z"/>
			</g>
		</g>
		<g transform="matrix(2.9777,-0.052,0.052,2.9777,310.3868,103.2802)">
			<g>
				<path class="st1" d="M-28.6,122.1c2.3,3.9,7.3,5.3,11.2,3s5.3-7.3,3-11.2s-7.3-5.3-11.2-3C-29.6,113.1-30.9,118.2-28.6,122.1z
					 M-17.8,115.8c1.2,2.1,0.5,4.8-1.6,6s-4.8,0.5-6-1.6s-0.5-4.8,1.6-6S-19,113.7-17.8,115.8z"/>
			</g>
		</g>
	</g>
	<g>
		<g>
			<path class="st0" d="M169.9,498.1c-1.4,0-2.9-0.3-4.2-1c-2.7-1.4-4.4-4.2-4.5-7.2c0-2.3,0.7-4.4,2.4-6c1.5-1.6,3.6-2.6,5.9-2.6
				c4.5-0.1,8.5,3.8,8.6,8.3C178.2,494.1,174.5,497.9,169.9,498.1z"/>
			<path class="st0" d="M223.9,495.4c-1.5,1.6-3.7,2.5-5.9,2.6c-1.5,0.1-2.9-0.3-4.2-1c-2.7-1.4-4.4-4.2-4.5-7.2
				c0-2.3,0.7-4.4,2.4-6c1.5-1.6,3.7-2.5,5.9-2.6c4.5-0.1,8.5,3.8,8.6,8.3C226.3,491.6,225.5,493.8,223.9,495.4z"/>
		</g>
		<g>
			<path class="st0" d="M189.1,514.5c-0.7,1.2-1.7,2.3-2.9,3.1c-2.6,1.6-5.9,1.7-8.5,0.3c-2-1.1-3.4-2.8-4-5
				c-0.6-2.1-0.4-4.4,0.7-6.4c2.1-3.9,7.5-5.5,11.5-3.3C189.8,505.3,191.3,510.4,189.1,514.5z"/>
			<path class="st0" d="M213.8,466.4c0.6,2.1,0.4,4.5-0.7,6.4c-0.7,1.3-1.7,2.3-2.9,3.1c-2.6,1.6-5.9,1.7-8.5,0.3
				c-2-1.1-3.4-2.8-4-5c-0.6-2.1-0.4-4.5,0.7-6.4c2.1-3.9,7.5-5.5,11.5-3.3C211.7,462.4,213.2,464.2,213.8,466.4z"/>
		</g>
		<g>
			<path class="st0" d="M212.9,506.1c0.7,1.2,1.2,2.6,1.2,4.1c0.1,3-1.4,5.9-4,7.5c-1.9,1.2-4.1,1.5-6.4,1c-2.2-0.5-4-1.8-5.2-3.8
				c-2.3-3.8-1-9.2,2.8-11.6C205.3,500.8,210.4,502.1,212.9,506.1z"/>
			<path class="st0" d="M183.6,460.7c2.2,0.5,4,1.9,5.2,3.8c0.8,1.2,1.2,2.6,1.2,4.1c0.1,3-1.4,5.9-4,7.5c-1.9,1.2-4.1,1.5-6.4,1
				c-2.2-0.5-4-1.9-5.2-3.8c-2.3-3.8-1-9.2,2.8-11.6C179.1,460.4,181.4,460.1,183.6,460.7z"/>
		</g>
	</g>
</g>
</svg>
