<svg xmlns="http://www.w3.org/2000/svg" xmlns:xlink="http://www.w3.org/1999/xlink" width="52" height="52" viewBox="0 0 52 52">
  <defs>
    <style>
      .cls-1 {
        fill-rule: evenodd;
        filter: url(#filter);
      }
    </style>
    <filter id="filter" x="886" y="1145" width="52" height="52" filterUnits="userSpaceOnUse">
      <feFlood result="flood" flood-color="#fff"/>
      <feComposite result="composite" operator="in" in2="SourceGraphic"/>
      <feBlend result="blend" in2="SourceGraphic"/>
    </filter>
  </defs>
  <path id="commercial_" data-name="commercial " class="cls-1" d="M935.4,1176.2h-7.8v-13h7.8a0.869,0.869,0,0,0,.867-0.87v-4.27l1.724-12.07a0.869,0.869,0,0,0-.734-0.98,0.515,0.515,0,0,0-.124-0.01H912.866a0.869,0.869,0,0,0-.867.87,0.808,0.808,0,0,0,.009.12l1.724,12.07v4.27a0.869,0.869,0,0,0,.867.87h7.8v13h-0.867a2.6,2.6,0,1,0,0,5.2H922.4v1.73h-6.067l0.809-12.13h0.924a0.869,0.869,0,0,0,.867-0.87v-3.46a0.869,0.869,0,0,0-.867-0.87h-6.131a28.948,28.948,0,0,1-6.115-12.46,6.062,6.062,0,0,0-8.5,4.71,8.655,8.655,0,0,0-9.533,7.67l-0.008.08h-0.913a0.869,0.869,0,0,0-.867.87v3.46a0.869,0.869,0,0,0,.867.87h0.923l1.677,25.19a0.864,0.864,0,0,0,.866.81h46.8a0.869,0.869,0,0,0,.867-0.87V1178.8A2.6,2.6,0,0,0,935.4,1176.2Zm-21.533-29.47H917.2v5.2h1.733v-5.2h1.733v1.74H922.4v-1.74h5.2v2.6h1.734v-2.6h1.733v5.2H932.8v-5.2h3.334l-1.485,10.4h-19.3Zm1.6,14.74v-2.6h19.065v2.6H915.466Zm10.4,1.73v13h-1.733v-13h1.733Zm-8.666,4.33v1.74h-13v-1.74h13Zm-19.958-7.74q0.357,0.045.708,0.12h0.029a7.06,7.06,0,0,1,2.779,1.36l1.09-1.35a8.984,8.984,0,0,0-2.8-1.5,4.321,4.321,0,1,1,7.886,2.86,0.862,0.862,0,0,0,.238,1.2,0.533,0.533,0,0,0,.2.1,4.344,4.344,0,0,1,2.8,3.22h-6.834a0.869,0.869,0,0,0-.867.87v7.8a0.867,0.867,0,0,1-1.733,0v-1.74a2.6,2.6,0,0,0-5.2,0v6.07a0.867,0.867,0,1,1-1.733,0v-12.13a0.869,0.869,0,0,0-.867-0.87h-3.408A6.916,6.916,0,0,1,897.241,1159.79Zm-9.508,9.48v-1.74h4.333v1.74h-4.333Zm22.533,16.46v9.54H891.144L889.526,1171h2.54v7.8a2.6,2.6,0,0,0,5.2,0v-6.07a0.867,0.867,0,0,1,1.733,0v1.74a2.6,2.6,0,1,0,5.2,0V1171h11.207l-0.807,12.13h-1.733A2.6,2.6,0,0,0,910.266,1185.73Zm26,9.54h-2.6v-4.34h-1.733v4.34h-2.6v-4.34H927.6v4.34H925v-4.34h-1.733v4.34h-2.6v-4.34h-1.733v4.34h-2.6v-4.34H914.6v4.34H912v-6.94h24.266v6.94Zm0-8.67H912v-0.87a0.86,0.86,0,0,1,.867-0.86h19.066a2.6,2.6,0,0,0,0-5.2h-10.4a0.87,0.87,0,0,1,0-1.74H935.4a0.869,0.869,0,0,1,.867.87v7.8Zm-12.133-3.47v-1.73h1.733v1.73h-1.733Zm3.466,0v-1.73h4.334a0.865,0.865,0,1,1,0,1.73H927.6Zm-38.131-29.46v-1.74h-1.734v1.74H886v1.73h1.733v1.73h1.734v-1.73H891.2v-1.73h-1.733Zm45.931,15.6v-1.74h-1.733v1.74h-1.733V1171h1.733v1.73H935.4V1171h1.733v-1.73H935.4Zm-32.932-22.54V1145h-1.733v1.73H899v1.74h1.734v1.73h1.733v-1.73H904.2v-1.74h-1.733Zm14.733,6.94h1.733v1.73H917.2v-1.73Z" transform="translate(-886 -1145)"/>
</svg>
