<svg xmlns="http://www.w3.org/2000/svg" xmlns:xlink="http://www.w3.org/1999/xlink" width="59" height="52" viewBox="0 0 59 52">
  <defs>
    <style>
      .cls-1 {
        fill-rule: evenodd;
        filter: url(#filter);
      }
    </style>
    <filter id="filter" x="486" y="1145" width="59" height="52" filterUnits="userSpaceOnUse">
      <feFlood result="flood" flood-color="#f45e1f"/>
      <feComposite result="composite" operator="in" in2="SourceGraphic"/>
      <feBlend result="blend" in2="SourceGraphic"/>
    </filter>
  </defs>
  <path id="house-icon" class="cls-1" d="M529.9,1178.16h-2.93a1.212,1.212,0,0,0-1.21,1.22v7.86a1.218,1.218,0,0,0,1.21,1.22h2.93a1.218,1.218,0,0,0,1.21-1.22v-7.86A1.211,1.211,0,0,0,529.9,1178.16Zm-0.519,8.56h-1.892v-6.82h1.892v6.82Zm8.293-8.56h-2.93a1.212,1.212,0,0,0-1.21,1.22v7.86a1.218,1.218,0,0,0,1.21,1.22h2.93a1.218,1.218,0,0,0,1.21-1.22v-7.86A1.212,1.212,0,0,0,537.672,1178.16Zm-0.519,8.56h-1.892v-6.82h1.892v6.82Zm-39.286-27.38c-1.615-.5-1.809-0.7-2.312-2.32a1.237,1.237,0,0,0-2.368,0c-0.5,1.62-.7,1.82-2.312,2.32a1.248,1.248,0,0,0,0,2.38c1.615,0.51,1.809.7,2.312,2.33a1.237,1.237,0,0,0,2.368,0c0.5-1.63.7-1.82,2.312-2.33A1.248,1.248,0,0,0,497.867,1159.34Zm-3.5,2.94a1.745,1.745,0,0,1,0-3.49A1.745,1.745,0,0,1,494.371,1162.28Zm25.459,26.37c-1.291-.4-1.41-0.52-1.812-1.82a1.173,1.173,0,0,0-2.243,0c-0.4,1.3-.521,1.42-1.811,1.82a1.186,1.186,0,0,0,0,2.26c1.292,0.4,1.411.52,1.813,1.82a1.173,1.173,0,0,0,2.243,0c0.4-1.3.521-1.42,1.812-1.82A1.186,1.186,0,0,0,519.83,1188.65Zm-2.934,2.24a1.11,1.11,0,0,1,0-2.22A1.11,1.11,0,0,1,516.9,1190.89Zm26.167-28.51c-1.292-.41-1.41-0.53-1.813-1.82a1.173,1.173,0,0,0-2.243,0c-0.4,1.29-.521,1.41-1.812,1.82a1.174,1.174,0,0,0-.826,1.13,1.162,1.162,0,0,0,.826,1.12c1.291,0.41,1.41.53,1.812,1.83a1.173,1.173,0,0,0,2.243,0c0.4-1.3.521-1.42,1.813-1.83a1.161,1.161,0,0,0,.825-1.12A1.174,1.174,0,0,0,543.063,1162.38Zm-2.934,2.24a1.115,1.115,0,0,1,0-2.23,2.748,2.748,0,0,0,1.108,1.12A2.785,2.785,0,0,0,540.129,1164.62Zm2.483,27.51v-6.52a0.865,0.865,0,1,0-1.729,0v6.04a2.809,2.809,0,0,0-2.083-.93,2.755,2.755,0,0,0-.808.12,2.822,2.822,0,0,0-5.114.95,2.953,2.953,0,0,0-.89.02,2.826,2.826,0,0,0-5.611.5v2.96H522.84v-18.13h18.043v3.83a0.865,0.865,0,1,0,1.729,0v-3.83h0.9a1.117,1.117,0,0,0,1.086-.66,1.129,1.129,0,0,0-.309-1.24L531.044,1162a2.433,2.433,0,0,0-1.594-.66h0l-25.1.01a2.393,2.393,0,0,0-1.534.65l-4.406,4.41a0.874,0.874,0,0,0,0,1.23,0.861,0.861,0,0,0,1.223,0l4.5-4.49,0.866,0.87-11.158,11.22a0.75,0.75,0,0,1-.373.16H491.87l4.875-4.88a0.874,0.874,0,0,0,0-1.23,0.861,0.861,0,0,0-1.223,0l-5.953,5.95a1.133,1.133,0,0,0-.309,1.24,1.117,1.117,0,0,0,1.086.66h2.821v3.4a8.665,8.665,0,0,1-.947.34,1.248,1.248,0,0,0,0,2.38,8.665,8.665,0,0,1,.947.34v5.87a3.4,3.4,0,0,0-2.528,1.96,3.355,3.355,0,0,0-1.261-.25,3.4,3.4,0,0,0-3.389,3.41v1.55a0.867,0.867,0,0,0,.864.87h57.286a0.867,0.867,0,0,0,.864-0.87v-1.2A2.843,2.843,0,0,0,542.612,1192.13Zm-49.441,3.14h-5.449v-0.68a1.655,1.655,0,0,1,2.859-1.15,0.858,0.858,0,0,0,.947.2,0.877,0.877,0,0,0,.542-0.81,1.671,1.671,0,0,1,1.1-1.57v4.01Zm48.818-19.87H518.912a0.744,0.744,0,0,1-.371-0.16l-1.971-1.99h23.273Zm-7.31-7.31h-3.158a0.87,0.87,0,0,0,0,1.74h4.9l1.685,1.68H514.849l-1.668-1.68h13.5a0.87,0.87,0,0,0,0-1.74H511.459l-1.667-1.68h23.2Zm-5.229-5.01a0.76,0.76,0,0,1,.376.16l1.429,1.43H508.07l-1.565-1.58Zm-20.268,32.19h-6.263V1179.9h6.263v15.37h0Zm1.729,0v-15.66a1.447,1.447,0,0,0-1.441-1.45h-6.839a1.447,1.447,0,0,0-1.441,1.45v15.66H494.9v-9.12a1.209,1.209,0,0,0,.82.31,1.234,1.234,0,0,0,1.184-.87c0.5-1.63.7-1.82,2.313-2.33a1.249,1.249,0,0,0,0-2.38c-1.615-.51-1.809-0.7-2.312-2.33a1.234,1.234,0,0,0-1.184-.87,1.211,1.211,0,0,0-.82.31v-1.14a0.828,0.828,0,0,1,.154-0.38l11.156-11.22,11.106,11.22a2.444,2.444,0,0,0,1.595.67h2.2v18.13h-10.2Zm-16.924-13.2a3.292,3.292,0,0,0,1.733-1.74,1.74,1.74,0,0,1,0,3.48A3.292,3.292,0,0,0,493.987,1182.07Zm49.291,13.2H528.105v-2.96a1.1,1.1,0,1,1,2.2,0v0.83a0.868,0.868,0,0,0,.512.79,0.858,0.858,0,0,0,.93-0.14,1.11,1.11,0,0,1,.731-0.29,1.041,1.041,0,0,1,.67.24,0.858,0.858,0,0,0,.91.09,0.876,0.876,0,0,0,.484-0.78v-0.63a1.1,1.1,0,0,1,2.175-.22,0.86,0.86,0,0,0,.554.65,0.851,0.851,0,0,0,.84-0.14,1.094,1.094,0,0,1,.692-0.25,1.109,1.109,0,0,1,1.1,1.12,0.864,0.864,0,0,0,.542.8,0.875,0.875,0,0,0,.947-0.2,1.091,1.091,0,0,1,1.891.76v0.33Zm-35.508-9.68a0.868,0.868,0,0,0-.865.87v1.22a0.865,0.865,0,1,0,1.729,0v-1.22A0.867,0.867,0,0,0,507.77,1185.59Zm7.615-5.71H513.2a1.218,1.218,0,0,0-1.211,1.22v2.66a1.212,1.212,0,0,0,1.211,1.22h2.19a1.212,1.212,0,0,0,1.21-1.22v-2.66A1.218,1.218,0,0,0,515.385,1179.88Zm-0.519,3.36h-1.153v-1.62h1.153v1.62Zm15.964-38.25a5.97,5.97,0,1,0,5.936,5.97A5.955,5.955,0,0,0,530.83,1144.99Zm0,10.2a4.235,4.235,0,1,1,4.207-4.23A4.225,4.225,0,0,1,530.83,1155.19Z" transform="translate(-486 -1145)"/>
</svg>
