<svg xmlns="http://www.w3.org/2000/svg" width="96" height="110" viewBox="0 0 96 110">
    <path fill="#FFF" fill-rule="evenodd" d="M32.12 42.713c-4.5 0-9-.006-13.5.009-.462.002-.958.038-1.377.211-1.157.476-1.511 2.072-.566 2.85.465.385 1.231.546 1.862.548 9 .033 18 .028 27 .012.659-.001 1.037.1 1.356.817 1.126 2.537 3.947 3.881 6.612 3.283 2.617-.588 4.536-2.995 4.576-5.74.043-2.905-1.697-5.272-4.387-5.967-2.695-.697-5.52.504-6.705 3.018-.377.798-.783.982-1.572.975-4.433-.034-8.866-.016-13.299-.016m2.375 15.473c0 2.657-.009 5.2.003 7.741.007 1.622.619 2.23 2.24 2.235 2.886.01 5.771.02 8.656-.01.676-.007 1.029.156 1.341.822 1.211 2.581 4.156 3.84 6.903 3.06 2.734-.778 4.71-3.476 4.417-6.03-.317-2.765-2.318-4.984-4.862-5.394-2.762-.445-5.13.86-6.468 3.489-.14.277-.637.527-.973.534-2.28.047-4.562.027-6.843.02-.257 0-.515-.048-.862-.083v-1.127c0-2.187.015-4.374-.007-6.56-.016-1.634-.687-2.268-2.351-2.272-2.719-.006-5.436-.002-8.153-.002-1.04 0-2.082-.031-3.12.014-1.062.048-1.814.806-1.828 1.75-.014.957.706 1.695 1.777 1.8.299.03.603.013.904.013h9.226m-.002-26.373H33.24c-2.861.001-5.723-.018-8.584.012-1.347.014-2.113.732-2.066 1.809.045 1.029.822 1.68 2.103 1.684 3.736.013 7.473.015 11.21 0 1.531-.005 2.176-.67 2.185-2.217.013-2.222.004-4.444.004-6.666v-1.098c2.642 0 5.13.016 7.617-.013.604-.007.918.124 1.194.734 1.157 2.552 4.116 3.89 6.802 3.171 2.713-.726 4.496-3.11 4.373-5.844-.123-2.749-2.01-5.022-4.634-5.58-2.775-.592-5.509.727-6.66 3.29-.252.56-.55.712-1.127.707-2.894-.024-5.79-.015-8.684-.01-1.877.003-2.476.595-2.479 2.444-.004 2.484 0 4.968 0 7.577M18.948 93.879c0-3.669-.058-7.339.022-11.006.05-2.275-.755-4.044-2.454-5.533-5.59-4.896-9.899-10.766-12.681-17.638-6.392-15.786-4.994-30.74 5.688-44.27C16.346 6.794 25.521 1.907 36.464.396 43.14-.528 49.647.173 55.984 2.437c6.74 2.407 12.459 6.323 17.209 11.674 5.656 6.371 9.014 13.787 10.209 22.199.111.791.078 1.62.3 2.376.333 1.134.661 2.331 1.29 3.311 3.33 5.193 6.763 10.32 10.137 15.486 1.382 2.116 1.12 4.555-.81 6.097-.75.6-1.843.975-2.814 1.056-1.924.162-3.87.042-5.807.05-1.488.006-1.976.488-1.979 1.992-.007 5.203.002 10.406-.005 15.609-.005 4.815-2.84 7.64-7.666 7.647-3.708.006-7.415 0-11.122.002-2.104.002-2.78.659-2.782 2.734-.006 5.203.04 7.737-.04 12.94-.015 1.01-.322 2.12-.825 2.995-.656 1.142-3.216 1.395-3.216 1.395s-33.545-.352-35.31-.486c-2.37-.181-3.798-1.668-3.803-4.028-.008-3.869-.002-7.738-.002-11.607"/>
</svg>
