<svg xmlns="http://www.w3.org/2000/svg" xmlns:xlink="http://www.w3.org/1999/xlink" width="125" height="110" viewBox="0 0 125 110">
    <defs>
        <path id="prefix__a" d="M0 0L124.923 0 124.923 109.715 0 109.715z"/>
    </defs>
    <g fill="none" fill-rule="evenodd">
        <mask id="prefix__b" fill="#fff">
            <use xlink:href="#prefix__a"/>
        </mask>
        <path fill="#FFF" d="M65.781 75.848v10.493h-6.1V75.927c-5.525-.653-10.349-3.244-13.24-5.69l-.63-.533 3.767-5.618.773.574c4.227 3.138 8.37 4.664 12.665 4.664 4.761 0 7.604-1.946 7.604-5.206 0-3.415-4.288-5.11-9.252-7.071-6.218-2.457-13.265-5.24-13.265-12.59 0-6.148 4.531-10.542 11.579-11.584v-9.499h6.1V32.8c5.292.652 8.526 3.142 11.017 5.585l.63.617-4.294 4.797-.678-.545c-3.258-2.614-5.566-3.858-9.867-3.858-4.21 0-6.824 1.885-6.824 4.92 0 2.786 3.958 4.3 8.541 6.052 6.227 2.382 13.976 5.346 13.976 13.325 0 6.472-4.897 11.09-12.502 12.156M27.395 47.077c-2.093.016-3.902-1.751-3.94-3.854-.04-2.077 1.75-3.921 3.842-3.958 2.071-.036 3.91 1.765 3.942 3.86.031 2.08-1.774 3.934-3.844 3.952m97.178-4.846c-1.41-5.176-6.464-8.352-11.69-7.29-.702.142-.988-.075-1.312-.635-5.492-9.457-13.414-16.262-23.25-20.75-13.648-6.23-27.808-7.19-42.315-3.465-.473.122-1.123.028-1.55-.215-5.159-2.94-10.289-5.932-15.43-8.9-1.304-.753-2.673-1.446-4.153-.56-1.445.865-1.488 2.364-1.435 3.841.196 5.389.384 10.778.617 16.166.033.777-.168 1.303-.758 1.82-5.207 4.562-9.307 9.96-12.047 16.35-.247.575-.56.69-1.108.677-1.159-.032-2.32-.035-3.48-.003-3.627.1-6.566 2.903-6.61 6.503-.074 6.097-.064 12.195-.002 18.293.031 3.133 2.274 5.772 5.366 6.307 1.473.255 3.01.209 4.514.17.808-.022 1.15.265 1.454.976 2.528 5.886 6.3 10.891 10.974 15.215.794.735 1.13 1.427 1.117 2.514-.06 5.004-.043 10.011-.02 15.016.017 3.44 2.034 5.439 5.413 5.439 4.464 0 8.929-.014 13.393.008 1.41.007 2.469-.564 3.098-1.797.508-.997.95-2.04 1.3-3.104.494-1.496.875-3.028 1.32-4.596 9.694 2.214 19.329 2.206 28.978.003.124.434.207.774.318 1.104.717 2.128 1.36 4.286 2.19 6.368.574 1.438 1.79 2.043 3.38 2.029 4.64-.042 9.28-.037 13.92-.003 1.597.012 2.9-.595 3.603-1.952.58-1.114 1.046-2.429 1.075-3.666.118-5.109.066-10.221.031-15.332-.005-.746.248-1.21.78-1.702 6.415-5.931 11.105-12.951 13.412-21.47.961-3.553 1.47-7.162 1.454-10.869.367-.132.692-.252 1.02-.368 5.004-1.765 7.813-7.057 6.433-12.122" mask="url(#prefix__b)"/>
    </g>
</svg>
