<svg xmlns="http://www.w3.org/2000/svg" xmlns:xlink="http://www.w3.org/1999/xlink" width="100" height="120" viewBox="0 0 100 120">
    <defs>
        <path id="prefix__a" d="M0 0.013L99.766 0.013 99.766 119.016 0 119.016z"/>
    </defs>
    <g fill="none" fill-rule="evenodd">
        <mask id="prefix__b" fill="#fff">
            <use xlink:href="#prefix__a"/>
        </mask>
        <path fill="#FFF" d="M49.941 108.704c2.489-1.903 4.928-3.714 7.307-5.598 7.584-6.005 14.32-12.823 19.828-20.769 5.608-8.092 9.15-17.052 11.022-26.68 1.697-8.716 2.251-17.528 2.288-26.384.009-2.118.36-1.665-1.632-2.176-6.733-1.728-13.29-3.953-19.657-6.73-6.33-2.76-12.458-5.898-18.284-9.598-.696-.442-1.193-.413-1.862.015-1.554.995-3.142 1.943-4.75 2.85-10.58 5.973-21.704 10.623-33.539 13.522-.993.243-1.311.634-1.298 1.687.093 7.662.45 15.302 1.642 22.886 1.19 7.564 3.159 14.899 6.573 21.794 7.325 14.792 19.025 25.629 32.362 35.18M.006 33.334c0-3.023-.016-6.046.004-9.07.019-3 1.266-4.567 4.197-5.169C19.707 15.91 33.842 9.555 47.019.971c1.939-1.263 3.806-1.285 5.717-.02C63.363 7.986 74.79 13.348 87.02 16.997c2.8.835 5.676 1.421 8.526 2.08 2.978.69 4.293 2.244 4.217 5.275-.154 6.084-.172 12.18-.589 18.247-1.003 14.607-4.365 28.58-12.11 41.248-4.711 7.708-10.544 14.52-17.187 20.652-5.204 4.803-10.753 9.183-16.586 13.212-2.51 1.734-4.28 1.743-6.777.01-8.848-6.14-17.088-12.975-24.254-21.023C11.992 85.167 5.295 71.887 2.446 56.727.993 48.994.323 41.188.006 33.334" mask="url(#prefix__b)"/>
        <path fill="#FFF" d="M48.616 61.755c-.371-.342-.654-.594-.926-.855-2.926-2.802-5.864-5.59-8.768-8.414-1.328-1.292-2.868-1.914-4.708-1.562-1.964.375-3.365 1.5-3.957 3.41-.629 2.03-.087 3.82 1.438 5.301 4.385 4.26 8.763 8.526 13.19 12.744 2.329 2.22 5.287 2.138 7.612-.114 1.564-1.515 3.107-3.053 4.66-4.58C63.093 61.844 69.027 56 74.97 50.165c1.406-1.38 2.334-2.942 1.938-4.97-.387-1.98-1.547-3.344-3.548-3.949-2.056-.621-3.8-.032-5.284 1.389-1.932 1.85-3.827 3.737-5.733 5.613-4.548 4.472-9.094 8.947-13.727 13.507M84.97 36.019c-.458 8.219-1.25 16.37-3.586 24.318-2.646 9.002-7.142 17.009-13.218 24.194-5.125 6.06-11.094 11.237-17.37 16.098-.51.396-.9.547-1.493.09-8.473-6.535-16.322-13.664-22.32-22.562-5.503-8.16-9.026-17.109-10.35-26.785-.842-6.155-1.09-12.389-1.623-18.586-.067-.772.206-1.139.98-1.353 11.742-3.248 22.79-8.081 33.255-14.214.725-.425 1.197-.157 1.763.172 7.106 4.126 14.484 7.713 22.216 10.554 3.496 1.284 7.082 2.336 10.645 3.436.824.255 1.197.597 1.121 1.491-.087 1.043-.02 2.097-.02 3.147"/>
    </g>
</svg>
