<svg xmlns="http://www.w3.org/2000/svg" xmlns:xlink="http://www.w3.org/1999/xlink" width="53" height="115" viewBox="0 0 53 115">
    <defs>
        <path id="prefix__a" d="M0 0L53 0 53 115 0 115z"/>
    </defs>
    <g fill="none" fill-rule="evenodd">
        <mask id="prefix__b" fill="#fff">
            <use xlink:href="#prefix__a"/>
        </mask>
        <path fill="#FFF" d="M46.468 77.847c0 1.137-.935 2.059-2.087 2.059H8.619c-1.153 0-2.087-.922-2.087-2.059V19.756c0-1.137.934-2.059 2.087-2.059H44.38c1.152 0 2.087.922 2.087 2.059v58.091zm-6.603 16.848c-1.975 0-3.576-1.579-3.576-3.527 0-1.949 1.601-3.528 3.576-3.528s3.577 1.58 3.577 3.528-1.602 3.527-3.577 3.527zm-13.275 0c-1.975 0-3.576-1.579-3.576-3.527 0-1.949 1.601-3.528 3.576-3.528s3.576 1.58 3.576 3.528-1.601 3.527-3.576 3.527zm-13.275 0c-1.975 0-3.576-1.579-3.576-3.527 0-1.949 1.6-3.528 3.576-3.528 1.975 0 3.576 1.58 3.576 3.528s-1.6 3.527-3.576 3.527zM26.432 0C9.24 0 0 6.671 0 6.671V108.33S9.378 115 26.568 115C43.76 115 53 108.329 53 108.329V6.67S43.622 0 26.432 0z" mask="url(#prefix__b)"/>
    </g>
</svg>
