<svg xmlns="http://www.w3.org/2000/svg" xmlns:xlink="http://www.w3.org/1999/xlink" width="66" height="110" viewBox="0 0 66 110">
    <defs>
        <path id="prefix__a" d="M0 0.511L45.332 0.511 45.332 109.083 0 109.083z"/>
    </defs>
    <g fill="none" fill-rule="evenodd">
        <path fill="#FFF" d="M48.937 34.793c4.67.052 9.341.057 14.01-.005 1.87-.025 3.091-1.27 3.052-2.828-.038-1.556-1.325-2.61-3.24-2.62-2.258-.012-4.515-.003-6.773-.003-2.296 0-4.592-.008-6.889.002-1.96.01-3.213 1.01-3.262 2.578-.052 1.644 1.153 2.855 3.102 2.876M48.969 20.159c2.299.015 4.597.004 6.896.004 2.298 0 4.597.008 6.896-.003 1.913-.01 3.19-1.056 3.238-2.62.047-1.603-1.277-2.844-3.158-2.854-4.637-.025-9.273-.027-13.91 0-1.852.012-3.096 1.18-3.098 2.78 0 1.62 1.215 2.68 3.136 2.693M48.931 50.406c2.3.02 4.598.005 6.898.004 2.376 0 4.754.019 7.13-.007 1.804-.019 3.029-1.15 3.041-2.736.011-1.559-1.25-2.725-3.06-2.734-4.676-.022-9.352-.021-14.029-.001-1.862.008-3.073 1.104-3.078 2.696-.004 1.677 1.18 2.76 3.098 2.778M62.894 59.606c-4.676-.029-9.353-.033-14.028.003-1.838.014-3.06 1.219-3.032 2.832.026 1.569 1.227 2.617 3.078 2.632 2.338.02 4.676.005 7.015.005 2.298 0 4.598.011 6.897-.003 1.883-.013 3.168-1.112 3.176-2.678.008-1.558-1.291-2.78-3.106-2.791M26.481 76.107c-.897-.343-1.205-.742-1.2-1.708.04-8.819.024-17.636.024-26.455V22.068c0-.424.014-.85-.028-1.27-.162-1.596-1.749-2.735-3.331-2.409-1.606.332-2.326 1.39-2.326 3.462-.002 17.327-.02 34.656.034 51.983.004 1.357-.349 1.949-1.65 2.47-5.276 2.112-8.047 7.833-6.64 13.243 1.334 5.13 6.515 9.164 12.353 8.455 5.177-.628 9.382-4.646 10.09-9.693.732-5.21-2.267-10.268-7.326-12.202"/>
        <mask id="prefix__b" fill="#fff">
            <use xlink:href="#prefix__a"/>
        </mask>
        <path fill="#FFF" d="M39.04 90.53c-2.1 8.001-9.346 13.198-17.723 12.714-7.685-.444-14.397-6.84-15.429-14.798-.917-7.07 1.53-12.763 7.2-17.009.841-.63 1.103-1.254 1.102-2.268-.03-20.666-.024-33.015-.02-53.68 0-4.31 1.989-7.416 5.535-8.685 5.72-2.047 11.37 1.953 11.43 8.154.054 5.386.013 2.459.013 7.847v15.239c0 10.506.008 21.012-.018 31.517-.001.776.236 1.235.861 1.692 6.349 4.629 8.988 11.893 7.05 19.278m-1.428-21.776c-.556-.517-.778-1.02-.776-1.775.022-10.16.016-20.32.016-30.48V24.606c-.001-6.042.053-3.769-.015-9.81-.106-9.368-8.81-16.14-17.69-13.831C12.77 2.625 8.47 8.343 8.467 15.237c-.01 19.975-.008 31.633.012 51.607 0 .831-.222 1.395-.84 1.982C1.34 74.811-1.242 82.168.563 90.689c1.913 9.033 7.483 15.084 16.384 17.518 8.624 2.359 16.16-.117 22.25-6.555 8.799-9.304 8.014-23.968-1.584-32.897" mask="url(#prefix__b)"/>
    </g>
</svg>
