<svg width="39" height="40" viewBox="0 0 39 40" fill="none" xmlns="http://www.w3.org/2000/svg">
<path d="M17.5206 38.8687C19.5834 38.8687 21.2712 37.1934 21.2712 35.1457H13.7701C13.7701 37.1934 15.4391 38.8687 17.5206 38.8687ZM28.7722 27.6998V18.3924C28.7722 12.6777 25.6968 7.89366 20.3335 6.62785V5.36205C20.3335 3.81702 19.0771 2.56982 17.5206 2.56982C15.9642 2.56982 14.7077 3.81702 14.7077 5.36205V6.62785C9.32575 7.89366 6.26908 12.6591 6.26908 18.3924V27.6998L2.51855 31.4228V33.2843H32.5227V31.4228L28.7722 27.6998Z" fill="#333333"/>
<path d="M37.5814 9.34395C37.5814 14.0239 33.7964 17.8158 29.1297 17.8158C24.463 17.8158 20.678 14.0239 20.678 9.34395C20.678 4.66402 24.463 0.872091 29.1297 0.872091C33.7964 0.872091 37.5814 4.66402 37.5814 9.34395Z" fill="#00ADEE" stroke="#00ADEE" stroke-width="0.990764"/>
<path d="M32.0999 5.19296V6.00143L28.7352 13.5154H27.475L30.7683 6.22732H26.9638V7.71347H25.8224V5.19296H32.0999Z" fill="white"/>
</svg>
